<svg viewBox = "0 0 88 88" width="88" height="88" xmlns="http://www.w3.org/2000/svg"><g transform="matrix(1 0 0 1 44 44)"  ><g style=""   ><g transform="matrix(1 0 0 1 0 0)"  ><path style="stroke: none; stroke-width: 1; stroke-dasharray: none; stroke-linecap: butt; stroke-dashoffset: 0; stroke-linejoin: miter; stroke-miterlimit: 4; fill: rgb(99,106,232); fill-rule: evenodd; opacity: 1;"  transform=" translate(-44, -44)" d="M 33.4383 20.1738 C 20.2795 26.0069 14.3408 41.4029 20.1739 54.5617 C 26.007 67.7205 41.4029 73.6592 54.5617 67.8261 C 67.7205 61.993 73.6592 46.597 67.8261 33.4382 C 61.993 20.2794 46.5971 14.3407 33.4383 20.1738 Z M 16.2854 56.2854 C 9.50037 40.979 16.4082 23.0704 31.7146 16.2854 C 47.0209 9.50033 64.9295 16.4082 71.7146 31.7145 C 78.4996 47.0209 71.5918 64.9295 56.2854 71.7145 C 40.9791 78.4996 23.0705 71.5917 16.2854 56.2854 Z" stroke-linecap="round" /></g><g transform="matrix(1 0 0 1 0.46 0.33)"  ><path style="stroke: none; stroke-width: 1; stroke-dasharray: none; stroke-linecap: butt; stroke-dashoffset: 0; stroke-linejoin: miter; stroke-miterlimit: 4; fill: rgb(232,97,140); fill-rule: evenodd; opacity: 1;"  transform=" translate(-44.46, -44.33)" d="M 24.4993 53.029 C 24.1657 58.643 25.85 63.0208 29.1026 65.392 C 32.3552 67.7633 37.0383 68.0276 42.2811 65.9925 C 47.4983 63.9673 52.9741 59.748 57.3562 53.7371 C 61.7384 47.7261 64.0802 41.2221 64.4122 35.6355 C 64.7458 30.0215 63.0615 25.6437 59.8089 23.2725 C 56.5563 20.9012 51.8732 20.637 46.6304 22.6721 C 41.4132 24.6972 35.9374 28.9165 31.5553 34.9275 C 27.1732 40.9384 24.8313 47.4424 24.4993 53.029 Z M 20.2534 52.7767 C 20.6406 46.2619 23.3292 38.991 28.1183 32.4218 C 32.9074 25.8526 39.0072 21.0686 45.0912 18.7069 C 51.1496 16.3552 57.4933 16.3207 62.3146 19.8355 C 67.1358 23.3503 69.0436 29.4004 68.6581 35.8878 C 68.2709 42.4027 65.5823 49.6735 60.7932 56.2427 C 56.0041 62.8119 49.9043 67.5959 43.8203 69.9576 C 37.7619 72.3093 31.4182 72.3438 26.5969 68.829 C 21.7757 65.3142 19.8679 59.2641 20.2534 52.7767 Z" stroke-linecap="round" /></g><g transform="matrix(1 0 0 1 0.68 0.5)"  ><path style="stroke: none; stroke-width: 1; stroke-dasharray: none; stroke-linecap: butt; stroke-dashoffset: 0; stroke-linejoin: miter; stroke-miterlimit: 4; fill: rgb(34,204,178); fill-rule: evenodd; opacity: 1;"  transform=" translate(-44.68, -44.5)" d="M 29.371 65.5033 C 29.5571 65.4934 29.952 65.4278 30.6601 65.1107 C 31.8977 64.5565 33.532 63.4654 35.4653 61.8259 C 39.3059 58.5691 43.9632 53.4609 48.4796 47.2658 C 52.996 41.0707 56.4344 35.074 58.3602 30.4212 C 59.3297 28.079 59.8685 26.1893 60.0175 24.8415 C 60.1027 24.0703 60.0444 23.6743 59.9969 23.494 C 59.8108 23.5039 59.4158 23.5696 58.7077 23.8866 C 57.4701 24.4408 55.8359 25.5319 53.9025 27.1714 C 50.062 30.4283 45.4047 35.5364 40.8883 41.7315 C 36.3719 47.9267 32.9334 53.9234 31.0076 58.5761 C 30.0382 60.9184 29.4994 62.808 29.3504 64.1559 C 29.2651 64.927 29.3235 65.3231 29.371 65.5033 Z M 27.0776 56.9495 C 29.1663 51.9032 32.7965 45.6109 37.4513 39.2259 C 42.1061 32.8409 46.9862 27.4598 51.1516 23.9275 C 53.2212 22.1724 55.207 20.7939 56.9694 20.0047 C 58.5609 19.292 60.7714 18.7106 62.5427 20.0019 C 64.3141 21.2932 64.4367 23.5756 64.2451 25.3089 C 64.0329 27.2282 63.328 29.5406 62.2902 32.0479 C 60.2016 37.0942 56.5714 43.3865 51.9166 49.7715 C 47.2617 56.1564 42.3817 61.5376 38.2163 65.0699 C 36.1467 66.825 34.1608 68.2035 32.3984 68.9926 C 30.8069 69.7053 28.5964 70.2868 26.8251 68.9954 C 25.0538 67.7041 24.9311 65.4217 25.1228 63.6885 C 25.335 61.7691 26.0398 59.4568 27.0776 56.9495 Z" stroke-linecap="round" /></g></g></g></svg>